<svg width="54" height="54" viewBox="0 0 54 54" fill="none" xmlns="http://www.w3.org/2000/svg">
<g clip-path="url(#clip0_435_2026)">
<path d="M27 54C41.9117 54 54 41.9117 54 27C54 12.0883 41.9117 0 27 0C12.0883 0 0 12.0883 0 27C0 41.9117 12.0883 54 27 54Z" fill="#26A17B"/>
<path fill-rule="evenodd" clip-rule="evenodd" d="M30.243 29.3338V29.3305C30.0574 29.344 29.1005 29.4013 26.9659 29.4013C25.2615 29.4013 24.0617 29.3507 23.6398 29.3305V29.3355C17.0788 29.047 12.1817 27.9045 12.1817 26.5376C12.1817 25.1725 17.0788 24.03 23.6398 23.7364V28.1981C24.0684 28.2285 25.2969 28.3011 26.9945 28.3011C29.0314 28.3011 30.0523 28.2167 30.243 28.1998V23.7398C36.7905 24.0317 41.6758 25.1741 41.6758 26.5376C41.6758 27.9045 36.7905 29.0436 30.243 29.3338ZM30.243 23.2757V19.2831H39.3791V13.1946H14.5037V19.2831H23.6398V23.274C16.2148 23.6149 10.6309 25.0864 10.6309 26.8481C10.6309 28.6099 16.2148 30.0797 23.6398 30.4223V43.2169H30.243V30.4189C37.6562 30.078 43.2266 28.6082 43.2266 26.8481C43.2266 25.0881 37.6562 23.6183 30.243 23.2757Z" fill="white"/>
</g>
<defs>
<clipPath id="clip0_435_2026">
<rect width="54" height="54" fill="white"/>
</clipPath>
</defs>
</svg>
